<mxfile host="app.diagrams.net" modified="2022-03-31T07:37:44.842Z" agent="5.0 (Windows NT 10.0; Win64; x64) AppleWebKit/537.36 (KHTML, like Gecko) Chrome/99.0.4844.74 Safari/537.36 Edg/99.0.1150.55" etag="y-yygJjxCUBp-tVxcsFt" version="17.2.5" type="github">
  <diagram id="GRbYc4D1fz2ACYJTaYYQ" name="Page-1">
    <mxGraphModel dx="2359" dy="957" grid="1" gridSize="10" guides="1" tooltips="1" connect="1" arrows="1" fold="1" page="1" pageScale="1" pageWidth="827" pageHeight="1169" math="0" shadow="0">
      <root>
        <mxCell id="0" />
        <mxCell id="1" parent="0" />
        <mxCell id="mgKAFR94RciZRfON1U5F-89" style="edgeStyle=orthogonalEdgeStyle;rounded=0;orthogonalLoop=1;jettySize=auto;html=1;entryX=0.5;entryY=0;entryDx=0;entryDy=0;" edge="1" parent="1" source="mgKAFR94RciZRfON1U5F-1" target="mgKAFR94RciZRfON1U5F-80">
          <mxGeometry relative="1" as="geometry" />
        </mxCell>
        <mxCell id="mgKAFR94RciZRfON1U5F-1" value="FileBox" style="shape=module;align=left;spacingLeft=20;align=center;verticalAlign=top;" vertex="1" parent="1">
          <mxGeometry x="244" y="20" width="216" height="250" as="geometry" />
        </mxCell>
        <mxCell id="mgKAFR94RciZRfON1U5F-2" value="AccountManager" style="shape=module;align=left;spacingLeft=20;align=center;verticalAlign=top;" vertex="1" parent="1">
          <mxGeometry x="280" y="440" width="490" height="275" as="geometry" />
        </mxCell>
        <mxCell id="mgKAFR94RciZRfON1U5F-90" style="edgeStyle=orthogonalEdgeStyle;rounded=0;orthogonalLoop=1;jettySize=auto;html=1;entryX=0;entryY=0.5;entryDx=10;entryDy=0;entryPerimeter=0;" edge="1" parent="1" source="mgKAFR94RciZRfON1U5F-3" target="mgKAFR94RciZRfON1U5F-2">
          <mxGeometry relative="1" as="geometry" />
        </mxCell>
        <mxCell id="mgKAFR94RciZRfON1U5F-3" value="Orbiter" style="shape=module;align=left;spacingLeft=20;align=center;verticalAlign=top;" vertex="1" parent="1">
          <mxGeometry x="90" y="552.5" width="90" height="50" as="geometry" />
        </mxCell>
        <mxCell id="mgKAFR94RciZRfON1U5F-4" value="«interface»&lt;br&gt;&lt;b&gt;AccountManager&lt;/b&gt;" style="html=1;" vertex="1" parent="1">
          <mxGeometry x="415" y="465" width="210" height="90" as="geometry" />
        </mxCell>
        <mxCell id="mgKAFR94RciZRfON1U5F-5" value="AccountManager-ios" style="swimlane;fontStyle=0;childLayout=stackLayout;horizontal=1;startSize=26;fillColor=none;horizontalStack=0;resizeParent=1;resizeParentMax=0;resizeLast=0;collapsible=1;marginBottom=0;" vertex="1" parent="1">
          <mxGeometry x="310" y="596" width="140" height="104" as="geometry" />
        </mxCell>
        <mxCell id="mgKAFR94RciZRfON1U5F-6" value="InitOrbit" style="text;strokeColor=none;fillColor=none;align=left;verticalAlign=top;spacingLeft=4;spacingRight=4;overflow=hidden;rotatable=0;points=[[0,0.5],[1,0.5]];portConstraint=eastwest;" vertex="1" parent="mgKAFR94RciZRfON1U5F-5">
          <mxGeometry y="26" width="140" height="26" as="geometry" />
        </mxCell>
        <mxCell id="mgKAFR94RciZRfON1U5F-7" value="SetMessiahOrbitParams" style="text;strokeColor=none;fillColor=none;align=left;verticalAlign=top;spacingLeft=4;spacingRight=4;overflow=hidden;rotatable=0;points=[[0,0.5],[1,0.5]];portConstraint=eastwest;" vertex="1" parent="mgKAFR94RciZRfON1U5F-5">
          <mxGeometry y="52" width="140" height="26" as="geometry" />
        </mxCell>
        <mxCell id="mgKAFR94RciZRfON1U5F-8" value="SDKMgrExtendFunc" style="text;strokeColor=none;fillColor=none;align=left;verticalAlign=top;spacingLeft=4;spacingRight=4;overflow=hidden;rotatable=0;points=[[0,0.5],[1,0.5]];portConstraint=eastwest;" vertex="1" parent="mgKAFR94RciZRfON1U5F-5">
          <mxGeometry y="78" width="140" height="26" as="geometry" />
        </mxCell>
        <mxCell id="mgKAFR94RciZRfON1U5F-17" value="ConcurrentModule" style="shape=module;align=left;spacingLeft=20;align=center;verticalAlign=top;" vertex="1" parent="1">
          <mxGeometry x="15" y="20" width="210" height="200" as="geometry" />
        </mxCell>
        <mxCell id="mgKAFR94RciZRfON1U5F-113" style="edgeStyle=orthogonalEdgeStyle;rounded=0;orthogonalLoop=1;jettySize=auto;html=1;entryX=0.906;entryY=0.002;entryDx=0;entryDy=0;entryPerimeter=0;" edge="1" parent="1" source="mgKAFR94RciZRfON1U5F-18" target="mgKAFR94RciZRfON1U5F-2">
          <mxGeometry relative="1" as="geometry" />
        </mxCell>
        <mxCell id="mgKAFR94RciZRfON1U5F-114" style="edgeStyle=orthogonalEdgeStyle;rounded=0;orthogonalLoop=1;jettySize=auto;html=1;entryX=1.01;entryY=0.898;entryDx=0;entryDy=0;entryPerimeter=0;" edge="1" parent="1" source="mgKAFR94RciZRfON1U5F-18" target="mgKAFR94RciZRfON1U5F-1">
          <mxGeometry relative="1" as="geometry" />
        </mxCell>
        <mxCell id="mgKAFR94RciZRfON1U5F-18" value="DownloadCommon" style="shape=module;align=left;spacingLeft=20;align=center;verticalAlign=top;" vertex="1" parent="1">
          <mxGeometry x="635" y="246" width="170" height="34" as="geometry" />
        </mxCell>
        <mxCell id="mgKAFR94RciZRfON1U5F-85" style="edgeStyle=orthogonalEdgeStyle;rounded=0;orthogonalLoop=1;jettySize=auto;html=1;entryX=1;entryY=0.25;entryDx=0;entryDy=0;" edge="1" parent="1" source="mgKAFR94RciZRfON1U5F-23" target="mgKAFR94RciZRfON1U5F-1">
          <mxGeometry relative="1" as="geometry" />
        </mxCell>
        <mxCell id="mgKAFR94RciZRfON1U5F-23" value="FastCSV" style="shape=module;align=left;spacingLeft=20;align=center;verticalAlign=top;" vertex="1" parent="1">
          <mxGeometry x="500" y="20" width="110" height="40" as="geometry" />
        </mxCell>
        <mxCell id="mgKAFR94RciZRfON1U5F-87" style="edgeStyle=orthogonalEdgeStyle;rounded=0;orthogonalLoop=1;jettySize=auto;html=1;exitX=0.5;exitY=1;exitDx=0;exitDy=0;entryX=0.5;entryY=0;entryDx=0;entryDy=0;" edge="1" parent="1" source="mgKAFR94RciZRfON1U5F-24" target="mgKAFR94RciZRfON1U5F-18">
          <mxGeometry relative="1" as="geometry" />
        </mxCell>
        <mxCell id="mgKAFR94RciZRfON1U5F-88" style="edgeStyle=orthogonalEdgeStyle;rounded=0;orthogonalLoop=1;jettySize=auto;html=1;entryX=1;entryY=0.75;entryDx=0;entryDy=0;" edge="1" parent="1" source="mgKAFR94RciZRfON1U5F-24" target="mgKAFR94RciZRfON1U5F-1">
          <mxGeometry relative="1" as="geometry" />
        </mxCell>
        <mxCell id="mgKAFR94RciZRfON1U5F-24" value="FlatterBuffer" style="shape=module;align=left;spacingLeft=20;align=center;verticalAlign=top;" vertex="1" parent="1">
          <mxGeometry x="660" y="170" width="120" height="35" as="geometry" />
        </mxCell>
        <mxCell id="mgKAFR94RciZRfON1U5F-25" value="NetworkMonitor" style="shape=module;align=left;spacingLeft=20;align=center;verticalAlign=top;" vertex="1" parent="1">
          <mxGeometry x="655" y="20" width="130" height="40" as="geometry" />
        </mxCell>
        <mxCell id="mgKAFR94RciZRfON1U5F-26" value="«interface»&lt;br&gt;&lt;b&gt;CustomDispatcher&lt;/b&gt;" style="html=1;" vertex="1" parent="1">
          <mxGeometry x="40" y="50" width="110" height="50" as="geometry" />
        </mxCell>
        <mxCell id="mgKAFR94RciZRfON1U5F-27" value="DownloadDispatcher" style="swimlane;fontStyle=1;align=center;verticalAlign=top;childLayout=stackLayout;horizontal=1;startSize=26;horizontalStack=0;resizeParent=1;resizeParentMax=0;resizeLast=0;collapsible=1;marginBottom=0;" vertex="1" parent="1">
          <mxGeometry x="40" y="122" width="160" height="86" as="geometry" />
        </mxCell>
        <mxCell id="mgKAFR94RciZRfON1U5F-28" value="+ field: type" style="text;strokeColor=none;fillColor=none;align=left;verticalAlign=top;spacingLeft=4;spacingRight=4;overflow=hidden;rotatable=0;points=[[0,0.5],[1,0.5]];portConstraint=eastwest;" vertex="1" parent="mgKAFR94RciZRfON1U5F-27">
          <mxGeometry y="26" width="160" height="26" as="geometry" />
        </mxCell>
        <mxCell id="mgKAFR94RciZRfON1U5F-29" value="" style="line;strokeWidth=1;fillColor=none;align=left;verticalAlign=middle;spacingTop=-1;spacingLeft=3;spacingRight=3;rotatable=0;labelPosition=right;points=[];portConstraint=eastwest;" vertex="1" parent="mgKAFR94RciZRfON1U5F-27">
          <mxGeometry y="52" width="160" height="8" as="geometry" />
        </mxCell>
        <mxCell id="mgKAFR94RciZRfON1U5F-30" value="+ method(type): type" style="text;strokeColor=none;fillColor=none;align=left;verticalAlign=top;spacingLeft=4;spacingRight=4;overflow=hidden;rotatable=0;points=[[0,0.5],[1,0.5]];portConstraint=eastwest;" vertex="1" parent="mgKAFR94RciZRfON1U5F-27">
          <mxGeometry y="60" width="160" height="26" as="geometry" />
        </mxCell>
        <mxCell id="mgKAFR94RciZRfON1U5F-34" value="" style="endArrow=block;dashed=1;endFill=0;endSize=12;html=1;rounded=0;exitX=0.5;exitY=1;exitDx=0;exitDy=0;entryX=0.5;entryY=0;entryDx=0;entryDy=0;" edge="1" parent="1" source="mgKAFR94RciZRfON1U5F-26" target="mgKAFR94RciZRfON1U5F-27">
          <mxGeometry width="160" relative="1" as="geometry">
            <mxPoint x="340" y="340" as="sourcePoint" />
            <mxPoint x="500" y="340" as="targetPoint" />
          </mxGeometry>
        </mxCell>
        <mxCell id="mgKAFR94RciZRfON1U5F-36" value="" style="endArrow=block;dashed=1;endFill=0;endSize=12;html=1;rounded=0;" edge="1" parent="1" source="mgKAFR94RciZRfON1U5F-4" target="mgKAFR94RciZRfON1U5F-5">
          <mxGeometry width="160" relative="1" as="geometry">
            <mxPoint x="370" y="385" as="sourcePoint" />
            <mxPoint x="530" y="385" as="targetPoint" />
          </mxGeometry>
        </mxCell>
        <mxCell id="mgKAFR94RciZRfON1U5F-37" value="" style="endArrow=block;dashed=1;endFill=0;endSize=12;html=1;rounded=0;exitX=0.5;exitY=1;exitDx=0;exitDy=0;entryX=0.5;entryY=0;entryDx=0;entryDy=0;" edge="1" parent="1" source="mgKAFR94RciZRfON1U5F-4" target="mgKAFR94RciZRfON1U5F-96">
          <mxGeometry width="160" relative="1" as="geometry">
            <mxPoint x="484.3478260869565" y="565" as="sourcePoint" />
            <mxPoint x="530" y="596" as="targetPoint" />
          </mxGeometry>
        </mxCell>
        <mxCell id="mgKAFR94RciZRfON1U5F-38" value="" style="endArrow=block;dashed=1;endFill=0;endSize=12;html=1;rounded=0;exitX=0.809;exitY=1.008;exitDx=0;exitDy=0;exitPerimeter=0;entryX=0.5;entryY=0;entryDx=0;entryDy=0;" edge="1" parent="1" source="mgKAFR94RciZRfON1U5F-4" target="mgKAFR94RciZRfON1U5F-100">
          <mxGeometry width="160" relative="1" as="geometry">
            <mxPoint x="494.3478260869565" y="575" as="sourcePoint" />
            <mxPoint x="680" y="596" as="targetPoint" />
          </mxGeometry>
        </mxCell>
        <mxCell id="mgKAFR94RciZRfON1U5F-39" value="LauncherRule" style="shape=module;align=left;spacingLeft=20;align=center;verticalAlign=top;strokeColor=#80FF00;" vertex="1" parent="1">
          <mxGeometry x="-5" y="750" width="230" height="340" as="geometry" />
        </mxCell>
        <mxCell id="mgKAFR94RciZRfON1U5F-40" value="StreamPatch" style="shape=module;align=left;spacingLeft=20;align=center;verticalAlign=top;strokeColor=#80FF00;" vertex="1" parent="1">
          <mxGeometry x="244" y="780" width="430" height="340" as="geometry" />
        </mxCell>
        <mxCell id="mgKAFR94RciZRfON1U5F-107" style="edgeStyle=orthogonalEdgeStyle;rounded=0;orthogonalLoop=1;jettySize=auto;html=1;strokeColor=#80FF00;" edge="1" parent="1" source="mgKAFR94RciZRfON1U5F-41" target="mgKAFR94RciZRfON1U5F-49">
          <mxGeometry relative="1" as="geometry" />
        </mxCell>
        <mxCell id="mgKAFR94RciZRfON1U5F-41" value="OrbitDownloader" style="swimlane;fontStyle=1;align=center;verticalAlign=top;childLayout=stackLayout;horizontal=1;startSize=26;horizontalStack=0;resizeParent=1;resizeParentMax=0;resizeLast=0;collapsible=1;marginBottom=0;strokeColor=#80FF00;" vertex="1" parent="1">
          <mxGeometry x="274" y="805" width="160" height="86" as="geometry" />
        </mxCell>
        <mxCell id="mgKAFR94RciZRfON1U5F-42" value="+ field: type" style="text;strokeColor=#80FF00;fillColor=none;align=left;verticalAlign=top;spacingLeft=4;spacingRight=4;overflow=hidden;rotatable=0;points=[[0,0.5],[1,0.5]];portConstraint=eastwest;" vertex="1" parent="mgKAFR94RciZRfON1U5F-41">
          <mxGeometry y="26" width="160" height="26" as="geometry" />
        </mxCell>
        <mxCell id="mgKAFR94RciZRfON1U5F-43" value="" style="line;strokeWidth=1;fillColor=none;align=left;verticalAlign=middle;spacingTop=-1;spacingLeft=3;spacingRight=3;rotatable=0;labelPosition=right;points=[];portConstraint=eastwest;strokeColor=#80FF00;" vertex="1" parent="mgKAFR94RciZRfON1U5F-41">
          <mxGeometry y="52" width="160" height="8" as="geometry" />
        </mxCell>
        <mxCell id="mgKAFR94RciZRfON1U5F-44" value="+ method(type): type" style="text;strokeColor=#80FF00;fillColor=none;align=left;verticalAlign=top;spacingLeft=4;spacingRight=4;overflow=hidden;rotatable=0;points=[[0,0.5],[1,0.5]];portConstraint=eastwest;" vertex="1" parent="mgKAFR94RciZRfON1U5F-41">
          <mxGeometry y="60" width="160" height="26" as="geometry" />
        </mxCell>
        <mxCell id="mgKAFR94RciZRfON1U5F-109" style="edgeStyle=orthogonalEdgeStyle;rounded=0;orthogonalLoop=1;jettySize=auto;html=1;strokeColor=#80FF00;" edge="1" parent="1" source="mgKAFR94RciZRfON1U5F-45" target="mgKAFR94RciZRfON1U5F-54">
          <mxGeometry relative="1" as="geometry" />
        </mxCell>
        <mxCell id="mgKAFR94RciZRfON1U5F-45" value="OnDemandDownloader" style="swimlane;fontStyle=1;align=center;verticalAlign=top;childLayout=stackLayout;horizontal=1;startSize=26;horizontalStack=0;resizeParent=1;resizeParentMax=0;resizeLast=0;collapsible=1;marginBottom=0;strokeColor=#80FF00;" vertex="1" parent="1">
          <mxGeometry x="484" y="805" width="160" height="86" as="geometry" />
        </mxCell>
        <mxCell id="mgKAFR94RciZRfON1U5F-46" value="+ field: type" style="text;strokeColor=#80FF00;fillColor=none;align=left;verticalAlign=top;spacingLeft=4;spacingRight=4;overflow=hidden;rotatable=0;points=[[0,0.5],[1,0.5]];portConstraint=eastwest;" vertex="1" parent="mgKAFR94RciZRfON1U5F-45">
          <mxGeometry y="26" width="160" height="26" as="geometry" />
        </mxCell>
        <mxCell id="mgKAFR94RciZRfON1U5F-47" value="" style="line;strokeWidth=1;fillColor=none;align=left;verticalAlign=middle;spacingTop=-1;spacingLeft=3;spacingRight=3;rotatable=0;labelPosition=right;points=[];portConstraint=eastwest;strokeColor=#80FF00;" vertex="1" parent="mgKAFR94RciZRfON1U5F-45">
          <mxGeometry y="52" width="160" height="8" as="geometry" />
        </mxCell>
        <mxCell id="mgKAFR94RciZRfON1U5F-48" value="+ method(type): type" style="text;strokeColor=#80FF00;fillColor=none;align=left;verticalAlign=top;spacingLeft=4;spacingRight=4;overflow=hidden;rotatable=0;points=[[0,0.5],[1,0.5]];portConstraint=eastwest;" vertex="1" parent="mgKAFR94RciZRfON1U5F-45">
          <mxGeometry y="60" width="160" height="26" as="geometry" />
        </mxCell>
        <mxCell id="mgKAFR94RciZRfON1U5F-49" value="Prefetcher" style="swimlane;fontStyle=1;align=center;verticalAlign=top;childLayout=stackLayout;horizontal=1;startSize=26;horizontalStack=0;resizeParent=1;resizeParentMax=0;resizeLast=0;collapsible=1;marginBottom=0;strokeColor=#80FF00;" vertex="1" parent="1">
          <mxGeometry x="270" y="930" width="160" height="86" as="geometry" />
        </mxCell>
        <mxCell id="mgKAFR94RciZRfON1U5F-50" value="+ field: type" style="text;strokeColor=#80FF00;fillColor=none;align=left;verticalAlign=top;spacingLeft=4;spacingRight=4;overflow=hidden;rotatable=0;points=[[0,0.5],[1,0.5]];portConstraint=eastwest;" vertex="1" parent="mgKAFR94RciZRfON1U5F-49">
          <mxGeometry y="26" width="160" height="26" as="geometry" />
        </mxCell>
        <mxCell id="mgKAFR94RciZRfON1U5F-51" value="" style="line;strokeWidth=1;fillColor=none;align=left;verticalAlign=middle;spacingTop=-1;spacingLeft=3;spacingRight=3;rotatable=0;labelPosition=right;points=[];portConstraint=eastwest;strokeColor=#80FF00;" vertex="1" parent="mgKAFR94RciZRfON1U5F-49">
          <mxGeometry y="52" width="160" height="8" as="geometry" />
        </mxCell>
        <mxCell id="mgKAFR94RciZRfON1U5F-52" value="+ method(type): type" style="text;strokeColor=#80FF00;fillColor=none;align=left;verticalAlign=top;spacingLeft=4;spacingRight=4;overflow=hidden;rotatable=0;points=[[0,0.5],[1,0.5]];portConstraint=eastwest;" vertex="1" parent="mgKAFR94RciZRfON1U5F-49">
          <mxGeometry y="60" width="160" height="26" as="geometry" />
        </mxCell>
        <mxCell id="mgKAFR94RciZRfON1U5F-53" value="«interface»&lt;br&gt;&lt;b&gt;StreamPatchInterface&lt;/b&gt;" style="html=1;strokeColor=#80FF00;" vertex="1" parent="1">
          <mxGeometry x="495" y="1050" width="140" height="43" as="geometry" />
        </mxCell>
        <mxCell id="mgKAFR94RciZRfON1U5F-54" value="StreamPatchImplement" style="swimlane;fontStyle=1;align=center;verticalAlign=top;childLayout=stackLayout;horizontal=1;startSize=26;horizontalStack=0;resizeParent=1;resizeParentMax=0;resizeLast=0;collapsible=1;marginBottom=0;strokeColor=#80FF00;" vertex="1" parent="1">
          <mxGeometry x="484" y="930" width="160" height="86" as="geometry" />
        </mxCell>
        <mxCell id="mgKAFR94RciZRfON1U5F-55" value="+ field: type" style="text;strokeColor=#80FF00;fillColor=none;align=left;verticalAlign=top;spacingLeft=4;spacingRight=4;overflow=hidden;rotatable=0;points=[[0,0.5],[1,0.5]];portConstraint=eastwest;" vertex="1" parent="mgKAFR94RciZRfON1U5F-54">
          <mxGeometry y="26" width="160" height="26" as="geometry" />
        </mxCell>
        <mxCell id="mgKAFR94RciZRfON1U5F-56" value="" style="line;strokeWidth=1;fillColor=none;align=left;verticalAlign=middle;spacingTop=-1;spacingLeft=3;spacingRight=3;rotatable=0;labelPosition=right;points=[];portConstraint=eastwest;strokeColor=#80FF00;" vertex="1" parent="mgKAFR94RciZRfON1U5F-54">
          <mxGeometry y="52" width="160" height="8" as="geometry" />
        </mxCell>
        <mxCell id="mgKAFR94RciZRfON1U5F-57" value="+ method(type): type" style="text;strokeColor=#80FF00;fillColor=none;align=left;verticalAlign=top;spacingLeft=4;spacingRight=4;overflow=hidden;rotatable=0;points=[[0,0.5],[1,0.5]];portConstraint=eastwest;" vertex="1" parent="mgKAFR94RciZRfON1U5F-54">
          <mxGeometry y="60" width="160" height="26" as="geometry" />
        </mxCell>
        <mxCell id="mgKAFR94RciZRfON1U5F-58" value="LauncherHelper" style="swimlane;fontStyle=1;align=center;verticalAlign=top;childLayout=stackLayout;horizontal=1;startSize=26;horizontalStack=0;resizeParent=1;resizeParentMax=0;resizeLast=0;collapsible=1;marginBottom=0;strokeColor=#80FF00;" vertex="1" parent="1">
          <mxGeometry x="30" y="780" width="160" height="34" as="geometry" />
        </mxCell>
        <mxCell id="mgKAFR94RciZRfON1U5F-60" value="" style="line;strokeWidth=1;fillColor=none;align=left;verticalAlign=middle;spacingTop=-1;spacingLeft=3;spacingRight=3;rotatable=0;labelPosition=right;points=[];portConstraint=eastwest;strokeColor=#80FF00;" vertex="1" parent="mgKAFR94RciZRfON1U5F-58">
          <mxGeometry y="26" width="160" height="8" as="geometry" />
        </mxCell>
        <mxCell id="mgKAFR94RciZRfON1U5F-62" value="LauncherRule" style="swimlane;fontStyle=1;align=center;verticalAlign=top;childLayout=stackLayout;horizontal=1;startSize=26;horizontalStack=0;resizeParent=1;resizeParentMax=0;resizeLast=0;collapsible=1;marginBottom=0;strokeColor=#80FF00;" vertex="1" parent="1">
          <mxGeometry x="30" y="881" width="160" height="34" as="geometry" />
        </mxCell>
        <mxCell id="mgKAFR94RciZRfON1U5F-64" value="" style="line;strokeWidth=1;fillColor=none;align=left;verticalAlign=middle;spacingTop=-1;spacingLeft=3;spacingRight=3;rotatable=0;labelPosition=right;points=[];portConstraint=eastwest;strokeColor=#80FF00;" vertex="1" parent="mgKAFR94RciZRfON1U5F-62">
          <mxGeometry y="26" width="160" height="8" as="geometry" />
        </mxCell>
        <mxCell id="mgKAFR94RciZRfON1U5F-66" value="LauncherV3" style="swimlane;fontStyle=1;align=center;verticalAlign=top;childLayout=stackLayout;horizontal=1;startSize=26;horizontalStack=0;resizeParent=1;resizeParentMax=0;resizeLast=0;collapsible=1;marginBottom=0;strokeColor=#80FF00;" vertex="1" parent="1">
          <mxGeometry x="30" y="980" width="160" height="34" as="geometry" />
        </mxCell>
        <mxCell id="mgKAFR94RciZRfON1U5F-68" value="" style="line;strokeWidth=1;fillColor=none;align=left;verticalAlign=middle;spacingTop=-1;spacingLeft=3;spacingRight=3;rotatable=0;labelPosition=right;points=[];portConstraint=eastwest;strokeColor=#80FF00;" vertex="1" parent="mgKAFR94RciZRfON1U5F-66">
          <mxGeometry y="26" width="160" height="8" as="geometry" />
        </mxCell>
        <mxCell id="mgKAFR94RciZRfON1U5F-70" value="RemoteFileSystem" style="swimlane;fontStyle=1;align=center;verticalAlign=top;childLayout=stackLayout;horizontal=1;startSize=26;horizontalStack=0;resizeParent=1;resizeParentMax=0;resizeLast=0;collapsible=1;marginBottom=0;" vertex="1" parent="1">
          <mxGeometry x="270" y="60" width="160" height="86" as="geometry" />
        </mxCell>
        <mxCell id="mgKAFR94RciZRfON1U5F-71" value="+ field: type" style="text;strokeColor=none;fillColor=none;align=left;verticalAlign=top;spacingLeft=4;spacingRight=4;overflow=hidden;rotatable=0;points=[[0,0.5],[1,0.5]];portConstraint=eastwest;" vertex="1" parent="mgKAFR94RciZRfON1U5F-70">
          <mxGeometry y="26" width="160" height="26" as="geometry" />
        </mxCell>
        <mxCell id="mgKAFR94RciZRfON1U5F-72" value="" style="line;strokeWidth=1;fillColor=none;align=left;verticalAlign=middle;spacingTop=-1;spacingLeft=3;spacingRight=3;rotatable=0;labelPosition=right;points=[];portConstraint=eastwest;" vertex="1" parent="mgKAFR94RciZRfON1U5F-70">
          <mxGeometry y="52" width="160" height="8" as="geometry" />
        </mxCell>
        <mxCell id="mgKAFR94RciZRfON1U5F-73" value="+ method(type): type" style="text;strokeColor=none;fillColor=none;align=left;verticalAlign=top;spacingLeft=4;spacingRight=4;overflow=hidden;rotatable=0;points=[[0,0.5],[1,0.5]];portConstraint=eastwest;" vertex="1" parent="mgKAFR94RciZRfON1U5F-70">
          <mxGeometry y="60" width="160" height="26" as="geometry" />
        </mxCell>
        <mxCell id="mgKAFR94RciZRfON1U5F-74" value="FileRecorderSystem" style="swimlane;fontStyle=1;align=center;verticalAlign=top;childLayout=stackLayout;horizontal=1;startSize=26;horizontalStack=0;resizeParent=1;resizeParentMax=0;resizeLast=0;collapsible=1;marginBottom=0;" vertex="1" parent="1">
          <mxGeometry x="270" y="160" width="160" height="86" as="geometry" />
        </mxCell>
        <mxCell id="mgKAFR94RciZRfON1U5F-75" value="+ field: type" style="text;strokeColor=none;fillColor=none;align=left;verticalAlign=top;spacingLeft=4;spacingRight=4;overflow=hidden;rotatable=0;points=[[0,0.5],[1,0.5]];portConstraint=eastwest;" vertex="1" parent="mgKAFR94RciZRfON1U5F-74">
          <mxGeometry y="26" width="160" height="26" as="geometry" />
        </mxCell>
        <mxCell id="mgKAFR94RciZRfON1U5F-76" value="" style="line;strokeWidth=1;fillColor=none;align=left;verticalAlign=middle;spacingTop=-1;spacingLeft=3;spacingRight=3;rotatable=0;labelPosition=right;points=[];portConstraint=eastwest;" vertex="1" parent="mgKAFR94RciZRfON1U5F-74">
          <mxGeometry y="52" width="160" height="8" as="geometry" />
        </mxCell>
        <mxCell id="mgKAFR94RciZRfON1U5F-77" value="+ method(type): type" style="text;strokeColor=none;fillColor=none;align=left;verticalAlign=top;spacingLeft=4;spacingRight=4;overflow=hidden;rotatable=0;points=[[0,0.5],[1,0.5]];portConstraint=eastwest;" vertex="1" parent="mgKAFR94RciZRfON1U5F-74">
          <mxGeometry y="60" width="160" height="26" as="geometry" />
        </mxCell>
        <mxCell id="mgKAFR94RciZRfON1U5F-78" value="PlatformModule" style="shape=module;align=left;spacingLeft=20;align=center;verticalAlign=top;" vertex="1" parent="1">
          <mxGeometry x="620" y="100" width="200" height="40" as="geometry" />
        </mxCell>
        <mxCell id="mgKAFR94RciZRfON1U5F-79" value="" style="endArrow=diamondThin;endFill=0;endSize=24;html=1;rounded=0;exitX=0.5;exitY=1;exitDx=0;exitDy=0;" edge="1" parent="1" source="mgKAFR94RciZRfON1U5F-25" target="mgKAFR94RciZRfON1U5F-78">
          <mxGeometry width="160" relative="1" as="geometry">
            <mxPoint x="340" y="340" as="sourcePoint" />
            <mxPoint x="500" y="340" as="targetPoint" />
          </mxGeometry>
        </mxCell>
        <mxCell id="mgKAFR94RciZRfON1U5F-80" value="FileManager" style="swimlane;fontStyle=1;align=center;verticalAlign=top;childLayout=stackLayout;horizontal=1;startSize=26;horizontalStack=0;resizeParent=1;resizeParentMax=0;resizeLast=0;collapsible=1;marginBottom=0;" vertex="1" parent="1">
          <mxGeometry x="272" y="300" width="160" height="110" as="geometry" />
        </mxCell>
        <mxCell id="mgKAFR94RciZRfON1U5F-81" value="+ field: type" style="text;strokeColor=none;fillColor=none;align=left;verticalAlign=top;spacingLeft=4;spacingRight=4;overflow=hidden;rotatable=0;points=[[0,0.5],[1,0.5]];portConstraint=eastwest;" vertex="1" parent="mgKAFR94RciZRfON1U5F-80">
          <mxGeometry y="26" width="160" height="26" as="geometry" />
        </mxCell>
        <mxCell id="mgKAFR94RciZRfON1U5F-82" value="" style="line;strokeWidth=1;fillColor=none;align=left;verticalAlign=middle;spacingTop=-1;spacingLeft=3;spacingRight=3;rotatable=0;labelPosition=right;points=[];portConstraint=eastwest;" vertex="1" parent="mgKAFR94RciZRfON1U5F-80">
          <mxGeometry y="52" width="160" height="8" as="geometry" />
        </mxCell>
        <mxCell id="mgKAFR94RciZRfON1U5F-83" value="AddFileSystemBeforeName&#xa;AddFileSystemAfterName&#xa;SetFileRecorder" style="text;strokeColor=none;fillColor=none;align=left;verticalAlign=top;spacingLeft=4;spacingRight=4;overflow=hidden;rotatable=0;points=[[0,0.5],[1,0.5]];portConstraint=eastwest;" vertex="1" parent="mgKAFR94RciZRfON1U5F-80">
          <mxGeometry y="60" width="160" height="50" as="geometry" />
        </mxCell>
        <mxCell id="mgKAFR94RciZRfON1U5F-96" value="AccountManager-win" style="swimlane;fontStyle=0;childLayout=stackLayout;horizontal=1;startSize=26;fillColor=none;horizontalStack=0;resizeParent=1;resizeParentMax=0;resizeLast=0;collapsible=1;marginBottom=0;" vertex="1" parent="1">
          <mxGeometry x="470" y="596" width="140" height="104" as="geometry" />
        </mxCell>
        <mxCell id="mgKAFR94RciZRfON1U5F-97" value="InitOrbit" style="text;strokeColor=none;fillColor=none;align=left;verticalAlign=top;spacingLeft=4;spacingRight=4;overflow=hidden;rotatable=0;points=[[0,0.5],[1,0.5]];portConstraint=eastwest;" vertex="1" parent="mgKAFR94RciZRfON1U5F-96">
          <mxGeometry y="26" width="140" height="26" as="geometry" />
        </mxCell>
        <mxCell id="mgKAFR94RciZRfON1U5F-98" value="SetMessiahOrbitParams" style="text;strokeColor=none;fillColor=none;align=left;verticalAlign=top;spacingLeft=4;spacingRight=4;overflow=hidden;rotatable=0;points=[[0,0.5],[1,0.5]];portConstraint=eastwest;" vertex="1" parent="mgKAFR94RciZRfON1U5F-96">
          <mxGeometry y="52" width="140" height="26" as="geometry" />
        </mxCell>
        <mxCell id="mgKAFR94RciZRfON1U5F-99" value="SDKMgrExtendFunc" style="text;strokeColor=none;fillColor=none;align=left;verticalAlign=top;spacingLeft=4;spacingRight=4;overflow=hidden;rotatable=0;points=[[0,0.5],[1,0.5]];portConstraint=eastwest;" vertex="1" parent="mgKAFR94RciZRfON1U5F-96">
          <mxGeometry y="78" width="140" height="26" as="geometry" />
        </mxCell>
        <mxCell id="mgKAFR94RciZRfON1U5F-100" value="AccountManager-android" style="swimlane;fontStyle=0;childLayout=stackLayout;horizontal=1;startSize=26;fillColor=none;horizontalStack=0;resizeParent=1;resizeParentMax=0;resizeLast=0;collapsible=1;marginBottom=0;" vertex="1" parent="1">
          <mxGeometry x="620" y="596" width="140" height="104" as="geometry" />
        </mxCell>
        <mxCell id="mgKAFR94RciZRfON1U5F-101" value="InitOrbit" style="text;strokeColor=none;fillColor=none;align=left;verticalAlign=top;spacingLeft=4;spacingRight=4;overflow=hidden;rotatable=0;points=[[0,0.5],[1,0.5]];portConstraint=eastwest;" vertex="1" parent="mgKAFR94RciZRfON1U5F-100">
          <mxGeometry y="26" width="140" height="26" as="geometry" />
        </mxCell>
        <mxCell id="mgKAFR94RciZRfON1U5F-102" value="SetMessiahOrbitParams" style="text;strokeColor=none;fillColor=none;align=left;verticalAlign=top;spacingLeft=4;spacingRight=4;overflow=hidden;rotatable=0;points=[[0,0.5],[1,0.5]];portConstraint=eastwest;" vertex="1" parent="mgKAFR94RciZRfON1U5F-100">
          <mxGeometry y="52" width="140" height="26" as="geometry" />
        </mxCell>
        <mxCell id="mgKAFR94RciZRfON1U5F-103" value="SDKMgrExtendFunc" style="text;strokeColor=none;fillColor=none;align=left;verticalAlign=top;spacingLeft=4;spacingRight=4;overflow=hidden;rotatable=0;points=[[0,0.5],[1,0.5]];portConstraint=eastwest;" vertex="1" parent="mgKAFR94RciZRfON1U5F-100">
          <mxGeometry y="78" width="140" height="26" as="geometry" />
        </mxCell>
        <mxCell id="mgKAFR94RciZRfON1U5F-105" style="edgeStyle=orthogonalEdgeStyle;rounded=0;orthogonalLoop=1;jettySize=auto;html=1;exitX=0.5;exitY=1;exitDx=0;exitDy=0;entryX=0.5;entryY=0;entryDx=0;entryDy=0;" edge="1" parent="1" source="mgKAFR94RciZRfON1U5F-2" target="mgKAFR94RciZRfON1U5F-41">
          <mxGeometry relative="1" as="geometry" />
        </mxCell>
        <mxCell id="mgKAFR94RciZRfON1U5F-106" style="edgeStyle=orthogonalEdgeStyle;rounded=0;orthogonalLoop=1;jettySize=auto;html=1;exitX=1;exitY=0.5;exitDx=0;exitDy=0;entryX=0;entryY=0.5;entryDx=0;entryDy=0;strokeColor=#80FF00;" edge="1" parent="1" source="mgKAFR94RciZRfON1U5F-42" target="mgKAFR94RciZRfON1U5F-46">
          <mxGeometry relative="1" as="geometry" />
        </mxCell>
        <mxCell id="mgKAFR94RciZRfON1U5F-110" style="edgeStyle=orthogonalEdgeStyle;rounded=0;orthogonalLoop=1;jettySize=auto;html=1;exitX=1;exitY=0.5;exitDx=0;exitDy=0;entryX=0;entryY=0.5;entryDx=0;entryDy=0;strokeColor=#80FF00;" edge="1" parent="1" source="mgKAFR94RciZRfON1U5F-50" target="mgKAFR94RciZRfON1U5F-54">
          <mxGeometry relative="1" as="geometry" />
        </mxCell>
        <mxCell id="mgKAFR94RciZRfON1U5F-111" value="" style="endArrow=block;dashed=1;endFill=0;endSize=12;html=1;rounded=0;entryX=0.499;entryY=1.214;entryDx=0;entryDy=0;entryPerimeter=0;strokeColor=#80FF00;" edge="1" parent="1" source="mgKAFR94RciZRfON1U5F-53" target="mgKAFR94RciZRfON1U5F-57">
          <mxGeometry width="160" relative="1" as="geometry">
            <mxPoint x="340" y="930" as="sourcePoint" />
            <mxPoint x="500" y="930" as="targetPoint" />
          </mxGeometry>
        </mxCell>
        <mxCell id="mgKAFR94RciZRfON1U5F-112" style="edgeStyle=orthogonalEdgeStyle;rounded=0;orthogonalLoop=1;jettySize=auto;html=1;" edge="1" parent="1" source="mgKAFR94RciZRfON1U5F-73" target="mgKAFR94RciZRfON1U5F-2">
          <mxGeometry relative="1" as="geometry" />
        </mxCell>
      </root>
    </mxGraphModel>
  </diagram>
</mxfile>
